M48
; DRILL file {KiCad (7.0.0)} date Fri May 12 02:10:33 2023
; FORMAT={-:-/ absolute / inch / decimal}
; #@! TF.CreationDate,2023-05-12T02:10:33+03:00
; #@! TF.GenerationSoftware,Kicad,Pcbnew,(7.0.0)
; #@! TF.FileFunction,MixedPlating,1,2
FMAT,2
INCH
; #@! TA.AperFunction,Plated,PTH,ViaDrill
T1C0.0236
; #@! TA.AperFunction,Plated,PTH,ComponentDrill
T2C0.0236
; #@! TA.AperFunction,Plated,PTH,ComponentDrill
T3C0.0315
; #@! TA.AperFunction,Plated,PTH,ComponentDrill
T4C0.0374
; #@! TA.AperFunction,Plated,PTH,ComponentDrill
T5C0.0394
; #@! TA.AperFunction,Plated,PTH,ComponentDrill
T6C0.0400
; #@! TA.AperFunction,Plated,PTH,ComponentDrill
T7C0.0581
; #@! TA.AperFunction,Plated,PTH,ComponentDrill
T8C0.0591
; #@! TA.AperFunction,Plated,PTH,ViaDrill
T9C0.0800
; #@! TA.AperFunction,Plated,PTH,ComponentDrill
T10C0.0984
; #@! TA.AperFunction,Plated,PTH,ComponentDrill
T11C0.2087
%
G90
G05
T1
X0.7854Y-0.8642
X0.7854Y-1.1398
X0.7854Y-3.0689
X0.7854Y-3.6201
X0.7854Y-4.1713
X0.7854Y-4.998
X0.7854Y-5.5492
X1.061Y-0.5886
X1.061Y-0.8642
X1.061Y-4.1713
X1.061Y-4.998
X1.061Y-5.5492
X1.3366Y-0.5886
X1.3366Y-0.8642
X1.3366Y-5.5492
X1.6122Y-0.8642
X1.6122Y-1.4154
X1.6122Y-1.6909
X1.6122Y-5.8248
X1.8878Y-0.8642
X1.8878Y-1.4154
X1.8878Y-1.9665
X1.8878Y-3.0689
X2.1634Y-1.4154
X2.1634Y-1.9665
X2.1634Y-5.8248
X2.2343Y-3.6417
X2.2343Y-3.75
X2.2933Y-3.5925
X2.2933Y-3.7008
X2.3524Y-3.6516
X2.439Y-0.5886
X2.439Y-0.8642
X2.439Y-1.1398
X2.439Y-1.4154
X2.439Y-1.6909
X2.439Y-1.9665
X2.439Y-3.0689
X2.439Y-5.8248
X2.5197Y-4.6063
X2.6811Y-5.2047
X2.7146Y-0.5886
X2.7146Y-0.8642
X2.7146Y-1.1398
X2.7146Y-1.4154
X2.7146Y-1.6909
X2.7146Y-1.9665
X2.7146Y-5.5492
X2.7146Y-5.8248
X2.752Y-4.8661
X2.7854Y-3.878
X2.7854Y-3.9764
X2.7854Y-4.0846
X2.7854Y-4.1831
X2.9902Y-0.5886
X2.9902Y-0.8642
X2.9902Y-1.1398
X2.9902Y-1.4154
X2.9902Y-1.6909
X2.9902Y-1.9665
X2.9902Y-2.2421
X2.9902Y-4.7224
X2.9902Y-4.998
X2.9902Y-5.8248
T2
X3.5049Y-0.8268
X3.5049Y-2.6388
X3.5049Y-3.9754
X3.5049Y-5.7874
X3.5508Y-0.7161
X3.5508Y-0.9374
X3.5508Y-2.5281
X3.5508Y-2.7494
X3.5508Y-3.8647
X3.5508Y-4.0861
X3.5508Y-5.6767
X3.5508Y-5.8981
X3.6614Y-0.6703
X3.6614Y-0.9833
X3.6614Y-2.4823
X3.6614Y-2.7953
X3.6614Y-3.8189
X3.6614Y-4.1319
X3.6614Y-5.6309
X3.6614Y-5.9439
X3.7721Y-0.7161
X3.7721Y-0.9374
X3.7721Y-2.5281
X3.7721Y-2.7494
X3.7721Y-3.8647
X3.7721Y-4.0861
X3.7721Y-5.6767
X3.7721Y-5.8981
X3.8179Y-0.8268
X3.8179Y-2.6388
X3.8179Y-3.9754
X3.8179Y-5.7874
T3
X0.6969Y-1.6969
X0.6969Y-1.9969
X0.7295Y-2.4154
X0.7295Y-2.8154
X0.7295Y-2.9075
X0.7295Y-3.3075
X0.7295Y-3.3996
X0.7295Y-3.7996
X0.7295Y-3.8917
X0.7295Y-4.2917
X0.7295Y-4.3839
X0.7295Y-4.7839
X0.7295Y-4.876
X0.7295Y-5.276
X0.7295Y-5.365
X0.7295Y-5.765
X0.7969Y-1.6969
X0.7969Y-1.9969
X0.8476Y-2.9075
X0.8476Y-3.3075
X0.8476Y-3.3996
X0.8476Y-3.7996
X0.8476Y-3.8917
X0.8476Y-4.2917
X0.8476Y-4.3839
X0.8476Y-4.7839
X0.8476Y-4.876
X0.8476Y-5.276
X0.8476Y-5.365
X0.8476Y-5.765
X0.8969Y-1.6969
X0.8969Y-1.9969
X0.9657Y-3.3996
X0.9657Y-3.7996
X0.9657Y-3.8917
X0.9657Y-4.2917
X0.9657Y-4.3839
X0.9657Y-4.7839
X0.9657Y-4.876
X0.9657Y-5.276
X0.9657Y-5.365
X0.9657Y-5.765
X0.9969Y-1.6969
X0.9969Y-1.9969
X1.0839Y-3.8917
X1.0839Y-4.2917
X1.0839Y-4.3839
X1.0839Y-4.7839
X1.0839Y-4.876
X1.0839Y-5.276
X1.0839Y-5.365
X1.0839Y-5.765
X1.0969Y-1.6969
X1.0969Y-1.9969
X1.1969Y-1.6969
X1.1969Y-1.9969
X1.202Y-4.3807
X1.202Y-4.7807
X1.202Y-4.876
X1.202Y-5.276
X1.202Y-5.365
X1.202Y-5.765
X1.2969Y-1.6969
X1.2969Y-1.9969
X1.3201Y-4.876
X1.3201Y-5.276
X1.3201Y-5.365
X1.3201Y-5.765
X1.3969Y-1.6969
X1.3969Y-1.9969
X2.0195Y-2.3409
X2.0195Y-2.4409
X2.0195Y-2.6953
X2.0195Y-2.7953
X2.2402Y-5.2747
X2.2402Y-5.5747
X2.3195Y-2.3409
X2.3195Y-2.4409
X2.3195Y-2.6953
X2.3195Y-2.7953
X2.3402Y-5.2747
X2.3402Y-5.5747
X2.4402Y-5.2747
X2.4402Y-5.5747
X2.5402Y-5.2747
X2.5402Y-5.5747
X2.5543Y-2.3409
X2.5543Y-2.4409
X2.5543Y-2.6953
X2.5543Y-2.7953
X2.8543Y-2.3409
X2.8543Y-2.4409
X2.8543Y-2.6953
X2.8543Y-2.7953
T4
X0.7787Y-5.9028
X0.8772Y-5.9028
X0.9756Y-5.9028
X1.074Y-5.9028
X1.1724Y-5.9028
X1.2709Y-5.9028
X4.1654Y-3.126
X4.1654Y-3.2244
X4.1654Y-3.3228
X4.1654Y-3.4213
X4.1654Y-3.5197
X4.1654Y-3.6181
X4.3583Y-3.0274
X4.3583Y-3.1258
X4.3583Y-3.2243
X4.3583Y-3.3227
X4.3583Y-3.4211
X4.3583Y-3.5195
X4.3583Y-3.618
T5
X0.6988Y-2.2933
X1.0461Y-1.2608
X1.1461Y-1.2608
X1.2461Y-1.2608
X1.7612Y-2.0555
X1.7612Y-2.1555
X1.7612Y-2.2555
X1.7612Y-2.3555
X1.7612Y-2.4555
X1.8079Y-0.73
X1.81Y-1.04
X1.8457Y-3.1776
X1.8457Y-3.2776
X1.8457Y-3.3776
X1.8457Y-3.4776
X1.8457Y-3.5776
X1.8457Y-3.6776
X1.8457Y-3.7776
X1.8457Y-3.8776
X1.8457Y-3.9776
X1.8612Y-2.0555
X1.8612Y-2.1555
X1.8612Y-2.2555
X1.8612Y-2.3555
X1.8612Y-2.4555
X1.9079Y-0.73
X1.91Y-1.04
X1.9228Y-4.3793
X1.9228Y-4.4793
X1.9457Y-3.1776
X1.9457Y-3.2776
X1.9457Y-3.3776
X1.9457Y-3.4776
X1.9457Y-3.5776
X1.9457Y-3.6776
X1.9457Y-3.7776
X1.9457Y-3.8776
X1.9457Y-3.9776
X2.0079Y-0.73
X2.01Y-1.04
X2.0228Y-4.3793
X2.0228Y-4.4793
X2.1079Y-0.73
X2.11Y-1.04
X2.1228Y-4.3793
X2.1228Y-4.4793
X2.2047Y-0.8661
X2.2079Y-0.73
X2.21Y-1.04
X2.21Y-1.2
X2.2228Y-4.3793
X2.2228Y-4.4793
X2.3228Y-4.3793
X2.3228Y-4.4793
X2.4228Y-4.3793
X2.4228Y-4.4793
X2.5781Y-4.3789
X2.5781Y-4.4789
X2.6781Y-4.3789
X2.6781Y-4.4789
X2.8543Y-3.0807
T6
X2.0884Y-3.0785
X2.0884Y-3.1785
X2.0884Y-3.2785
X2.0884Y-3.3785
X2.0884Y-3.4785
X2.0884Y-3.5785
X2.0884Y-3.6785
X2.0884Y-3.7785
X2.0884Y-3.8785
X2.0884Y-3.9785
X2.0884Y-4.0785
X2.0884Y-4.1785
X2.1384Y-2.9785
X2.2384Y-2.9785
X2.3384Y-2.9785
X2.4384Y-2.9785
X2.5384Y-2.9785
X2.5734Y-3.4235
X2.5734Y-3.5235
X2.5734Y-3.8335
X2.5734Y-3.9335
X2.6384Y-2.9785
X2.6884Y-3.0785
X2.6884Y-3.1785
X2.6884Y-3.2785
X2.6884Y-3.3785
X2.6884Y-3.4785
X2.6884Y-3.5785
X2.6884Y-3.6785
X2.6884Y-3.7785
X2.6884Y-3.8785
X2.6884Y-3.9785
X2.6884Y-4.0785
X2.6884Y-4.1785
T7
X1.6496Y-5.3455
X1.6496Y-5.4455
X1.6496Y-5.5455
X1.6496Y-5.6455
X1.7496Y-5.3455
X1.7496Y-5.4455
X1.7496Y-5.5455
X1.7496Y-5.6455
X1.8496Y-5.3455
X1.8496Y-5.4455
X1.8496Y-5.5455
X1.8496Y-5.6455
X1.9496Y-5.3455
X1.9496Y-5.4455
X1.9496Y-5.5455
X1.9496Y-5.6455
X2.8457Y-5.3306
X2.8457Y-5.4306
X2.8457Y-5.5306
X2.8457Y-5.6306
X2.9457Y-5.3306
X2.9457Y-5.4306
X2.9457Y-5.5306
X2.9457Y-5.6306
X3.0457Y-5.3306
X3.0457Y-5.4306
X3.0457Y-5.5306
X3.0457Y-5.6306
X3.1457Y-5.3306
X3.1457Y-5.4306
X3.1457Y-5.5306
X3.1457Y-5.6306
X4.2594Y-1.4248
X4.2594Y-1.5248
X4.2594Y-1.6248
X4.2594Y-1.7248
X4.2594Y-4.8894
X4.2594Y-4.9894
X4.2594Y-5.0894
X4.2594Y-5.1894
X4.3594Y-1.4248
X4.3594Y-1.5248
X4.3594Y-1.6248
X4.3594Y-1.7248
X4.3594Y-4.8894
X4.3594Y-4.9894
X4.3594Y-5.0894
X4.3594Y-5.1894
X4.4594Y-1.4248
X4.4594Y-1.5248
X4.4594Y-1.6248
X4.4594Y-1.7248
X4.4594Y-4.8894
X4.4594Y-4.9894
X4.4594Y-5.0894
X4.4594Y-5.1894
X4.5594Y-1.4248
X4.5594Y-1.5248
X4.5594Y-1.6248
X4.5594Y-1.7248
X4.5594Y-4.8894
X4.5594Y-4.9894
X4.5594Y-5.0894
X4.5594Y-5.1894
X10.1256Y-4.8894
X10.1256Y-4.9894
X10.1256Y-5.0894
X10.1256Y-5.1894
X10.2256Y-4.8894
X10.2256Y-4.9894
X10.2256Y-5.0894
X10.2256Y-5.1894
X10.3256Y-4.8894
X10.3256Y-4.9894
X10.3256Y-5.0894
X10.3256Y-5.1894
X10.4256Y-4.8894
X10.4256Y-4.9894
X10.4256Y-5.0894
X10.4256Y-5.1894
T9
X1.75Y-0.6
X2.25Y-0.6
T10
X0.7087Y-0.7087
X1.7913Y-5.9055
X3.1496Y-0.7087
X3.1496Y-3.9764
X4.1683Y-0.7087
X4.4094Y-6.3386
X14.0157Y-0.7087
X14.0157Y-5.0394
T11
X3.6614Y-0.8268
X3.6614Y-2.6388
X3.6614Y-3.9754
X3.6614Y-5.7874
T8
G00X4.8504Y-0.1083
M15
G01X4.8504Y-0.4429
M16
G05
G00X4.8504Y-0.9744
M15
G01X4.8504Y-1.3091
M16
G05
G00X4.8504Y-1.8406
M15
G01X4.8504Y-2.1752
M16
G05
G00X4.8504Y-2.7067
M15
G01X4.8504Y-3.0413
M16
G05
G00X4.8504Y-3.9075
M15
G01X4.8504Y-3.5728
M16
G05
G00X4.8504Y-4.7736
M15
G01X4.8504Y-4.439
M16
G05
G00X4.8504Y-5.6398
M15
G01X4.8504Y-5.3051
M16
G05
G00X4.8504Y-6.5059
M15
G01X4.8504Y-6.1713
M16
G05
G00X7.6693Y-0.1083
M15
G01X7.6693Y-0.4429
M16
G05
G00X7.6693Y-0.9744
M15
G01X7.6693Y-1.3091
M16
G05
G00X7.6693Y-1.8406
M15
G01X7.6693Y-2.1752
M16
G05
G00X7.6693Y-2.7067
M15
G01X7.6693Y-3.0413
M16
G05
G00X7.6693Y-3.9075
M15
G01X7.6693Y-3.5728
M16
G05
G00X7.6693Y-4.7736
M15
G01X7.6693Y-4.439
M16
G05
G00X7.6693Y-5.6398
M15
G01X7.6693Y-5.3051
M16
G05
G00X7.6693Y-6.5059
M15
G01X7.6693Y-6.1713
M16
G05
G00X7.8425Y-0.1083
M15
G01X7.8425Y-0.4429
M16
G05
G00X7.8425Y-0.9744
M15
G01X7.8425Y-1.3091
M16
G05
G00X7.8425Y-1.8406
M15
G01X7.8425Y-2.1752
M16
G05
G00X7.8425Y-2.7067
M15
G01X7.8425Y-3.0413
M16
G05
G00X7.8425Y-3.9075
M15
G01X7.8425Y-3.5728
M16
G05
G00X7.8425Y-4.7736
M15
G01X7.8425Y-4.439
M16
G05
G00X7.8425Y-5.6398
M15
G01X7.8425Y-5.3051
M16
G05
G00X7.8425Y-6.5059
M15
G01X7.8425Y-6.1713
M16
G05
G00X10.6614Y-0.1083
M15
G01X10.6614Y-0.4429
M16
G05
G00X10.6614Y-0.9744
M15
G01X10.6614Y-1.3091
M16
G05
G00X10.6614Y-1.8406
M15
G01X10.6614Y-2.1752
M16
G05
G00X10.6614Y-2.7067
M15
G01X10.6614Y-3.0413
M16
G05
G00X10.6614Y-3.9075
M15
G01X10.6614Y-3.5728
M16
G05
G00X10.6614Y-4.7736
M15
G01X10.6614Y-4.439
M16
G05
G00X10.6614Y-5.6398
M15
G01X10.6614Y-5.3051
M16
G05
G00X10.6614Y-6.5059
M15
G01X10.6614Y-6.1713
M16
G05
G00X10.8346Y-0.1083
M15
G01X10.8346Y-0.4429
M16
G05
G00X10.8346Y-0.9744
M15
G01X10.8346Y-1.3091
M16
G05
G00X10.8346Y-1.8406
M15
G01X10.8346Y-2.1752
M16
G05
G00X10.8346Y-2.7067
M15
G01X10.8346Y-3.0413
M16
G05
G00X10.8346Y-3.9075
M15
G01X10.8346Y-3.5728
M16
G05
G00X10.8346Y-4.7736
M15
G01X10.8346Y-4.439
M16
G05
G00X10.8346Y-5.6398
M15
G01X10.8346Y-5.3051
M16
G05
G00X10.8346Y-6.5059
M15
G01X10.8346Y-6.1713
M16
G05
G00X13.6535Y-0.1083
M15
G01X13.6535Y-0.4429
M16
G05
G00X13.6535Y-0.9744
M15
G01X13.6535Y-1.3091
M16
G05
G00X13.6535Y-1.8406
M15
G01X13.6535Y-2.1752
M16
G05
G00X13.6535Y-2.7067
M15
G01X13.6535Y-3.0413
M16
G05
G00X13.6535Y-3.9075
M15
G01X13.6535Y-3.5728
M16
G05
G00X13.6535Y-4.7736
M15
G01X13.6535Y-4.439
M16
G05
G00X13.6535Y-5.6398
M15
G01X13.6535Y-5.3051
M16
G05
G00X13.6535Y-6.5059
M15
G01X13.6535Y-6.1713
M16
G05
T0
M30
