M48
; DRILL file {KiCad (7.0.0)} date Tue May  2 16:34:17 2023
; FORMAT={-:-/ absolute / inch / decimal}
; #@! TF.CreationDate,2023-05-02T16:34:17+03:00
; #@! TF.GenerationSoftware,Kicad,Pcbnew,(7.0.0)
; #@! TF.FileFunction,MixedPlating,1,2
FMAT,2
INCH
; #@! TA.AperFunction,Plated,PTH,ViaDrill
T1C0.0157
; #@! TA.AperFunction,Plated,PTH,ViaDrill
T2C0.0236
; #@! TA.AperFunction,Plated,PTH,ComponentDrill
T3C0.0236
; #@! TA.AperFunction,Plated,PTH,ComponentDrill
T4C0.0315
; #@! TA.AperFunction,Plated,PTH,ComponentDrill
T5C0.0374
; #@! TA.AperFunction,Plated,PTH,ComponentDrill
T6C0.0394
; #@! TA.AperFunction,Plated,PTH,ComponentDrill
T7C0.0400
; #@! TA.AperFunction,Plated,PTH,ComponentDrill
T8C0.0581
; #@! TA.AperFunction,Plated,PTH,ComponentDrill
T9C0.0591
; #@! TA.AperFunction,Plated,PTH,ComponentDrill
T10C0.0984
; #@! TA.AperFunction,Plated,PTH,ComponentDrill
T11C0.2087
%
G90
G05
T1
X0.6921Y-2.265
X0.7945Y-2.265
T2
X0.7461Y-0.9429
X0.7461Y-1.5335
X0.7461Y-2.5177
X0.7461Y-3.1083
X0.7461Y-3.6988
X0.7461Y-4.4862
X0.7461Y-5.0768
X0.7461Y-5.6673
X0.9429Y-4.0925
X1.1398Y-0.7461
X1.1398Y-1.3366
X1.1398Y-4.6831
X1.1398Y-5.4705
X1.5335Y-1.5335
X1.5335Y-5.8642
X1.7303Y-0.7461
X1.7303Y-2.7146
X1.7303Y-4.2894
X1.9272Y-1.7303
X2.0197Y-1.8622
X2.0492Y-0.9492
X2.0492Y-1.0492
X2.0492Y-1.1492
X2.0492Y-1.2492
X2.0492Y-1.3492
X2.1102Y-1.8622
X2.1102Y-1.9646
X2.124Y-5.4705
X2.1492Y-0.9492
X2.1492Y-1.0492
X2.1492Y-1.1492
X2.1492Y-1.2492
X2.1492Y-1.3492
X2.1693Y-2.2165
X2.1693Y-2.2717
X2.1969Y-1.8622
X2.1969Y-1.9646
X2.2461Y-4.6762
X2.2492Y-0.9492
X2.2492Y-1.0492
X2.2492Y-1.1492
X2.2559Y-1.9409
X2.2957Y-4.3858
X2.2992Y-1.9724
X2.3209Y-0.7461
X2.3209Y-3.1083
X2.3346Y-4.0866
X2.3583Y-1.9685
X2.4173Y-1.9567
X2.4213Y-4.4173
X2.4492Y-0.9492
X2.4492Y-1.0492
X2.4492Y-1.1492
X2.5177Y-2.124
X2.5177Y-4.0925
X2.5177Y-5.8642
X2.5492Y-0.9492
X2.5492Y-1.0492
X2.5492Y-1.1492
X2.5984Y-1.9488
X2.6492Y-0.9492
X2.6492Y-1.0492
X2.6492Y-1.1492
X2.6492Y-1.2492
X2.6492Y-1.3492
X2.6811Y-5.2047
X2.7146Y-2.9114
X2.7146Y-4.4862
X2.7146Y-5.4705
X2.7492Y-0.9492
X2.7492Y-1.0492
X2.7492Y-1.1492
X2.7492Y-1.2492
X2.7492Y-1.3492
X2.752Y-4.8661
X2.8976Y-1.8937
X2.9114Y-0.7461
X2.9114Y-1.5335
X2.9114Y-2.5177
X2.9114Y-3.3051
X2.9114Y-3.8957
X2.9114Y-4.8799
X3.1083Y-1.9272
X3.1083Y-4.2894
X3.1083Y-5.8642
T3
X3.5049Y-0.8268
X3.5049Y-2.6388
X3.5049Y-3.9754
X3.5049Y-5.7874
X3.5508Y-0.7161
X3.5508Y-0.9374
X3.5508Y-2.5281
X3.5508Y-2.7494
X3.5508Y-3.8647
X3.5508Y-4.0861
X3.5508Y-5.6767
X3.5508Y-5.8981
X3.6614Y-0.6703
X3.6614Y-0.9833
X3.6614Y-2.4823
X3.6614Y-2.7953
X3.6614Y-3.8189
X3.6614Y-4.1319
X3.6614Y-5.6309
X3.6614Y-5.9439
X3.7721Y-0.7161
X3.7721Y-0.9374
X3.7721Y-2.5281
X3.7721Y-2.7494
X3.7721Y-3.8647
X3.7721Y-4.0861
X3.7721Y-5.6767
X3.7721Y-5.8981
X3.8179Y-0.8268
X3.8179Y-2.6388
X3.8179Y-3.9754
X3.8179Y-5.7874
T4
X0.6969Y-1.6969
X0.6969Y-1.9969
X0.7295Y-2.4154
X0.7295Y-2.8154
X0.7295Y-2.9075
X0.7295Y-3.3075
X0.7295Y-3.3996
X0.7295Y-3.7996
X0.7295Y-3.8917
X0.7295Y-4.2917
X0.7295Y-4.3839
X0.7295Y-4.7839
X0.7295Y-4.876
X0.7295Y-5.276
X0.7295Y-5.365
X0.7295Y-5.765
X0.7969Y-1.6969
X0.7969Y-1.9969
X0.8476Y-2.9075
X0.8476Y-3.3075
X0.8476Y-3.3996
X0.8476Y-3.7996
X0.8476Y-3.8917
X0.8476Y-4.2917
X0.8476Y-4.3839
X0.8476Y-4.7839
X0.8476Y-4.876
X0.8476Y-5.276
X0.8476Y-5.365
X0.8476Y-5.765
X0.8969Y-1.6969
X0.8969Y-1.9969
X0.9657Y-3.3996
X0.9657Y-3.7996
X0.9657Y-3.8917
X0.9657Y-4.2917
X0.9657Y-4.3839
X0.9657Y-4.7839
X0.9657Y-4.876
X0.9657Y-5.276
X0.9657Y-5.365
X0.9657Y-5.765
X0.9969Y-1.6969
X0.9969Y-1.9969
X1.0839Y-3.8917
X1.0839Y-4.2917
X1.0839Y-4.3839
X1.0839Y-4.7839
X1.0839Y-4.876
X1.0839Y-5.276
X1.0839Y-5.365
X1.0839Y-5.765
X1.0969Y-1.6969
X1.0969Y-1.9969
X1.1969Y-1.6969
X1.1969Y-1.9969
X1.202Y-4.3807
X1.202Y-4.7807
X1.202Y-4.876
X1.202Y-5.276
X1.202Y-5.365
X1.202Y-5.765
X1.2969Y-1.6969
X1.2969Y-1.9969
X1.3201Y-4.876
X1.3201Y-5.276
X1.3201Y-5.365
X1.3201Y-5.765
X1.3969Y-1.6969
X1.3969Y-1.9969
X2.0195Y-2.3231
X2.0195Y-2.4231
X2.0195Y-2.6774
X2.0195Y-2.7774
X2.2402Y-5.2747
X2.2402Y-5.5747
X2.3195Y-2.3231
X2.3195Y-2.4231
X2.3195Y-2.6774
X2.3195Y-2.7774
X2.3402Y-5.2747
X2.3402Y-5.5747
X2.4402Y-5.2747
X2.4402Y-5.5747
X2.4764Y-2.3236
X2.4764Y-2.4236
X2.4764Y-2.678
X2.4764Y-2.778
X2.5402Y-5.2747
X2.5402Y-5.5747
X2.7764Y-2.3236
X2.7764Y-2.4236
X2.7764Y-2.678
X2.7764Y-2.778
X2.7882Y-5.8227
X2.7882Y-5.9408
X3.1882Y-5.8227
X3.1882Y-5.9408
T5
X0.7787Y-5.9028
X0.8772Y-5.9028
X0.9756Y-5.9028
X1.074Y-5.9028
X1.1724Y-5.9028
X1.2709Y-5.9028
X4.1654Y-3.126
X4.1654Y-3.2244
X4.1654Y-3.3228
X4.1654Y-3.4213
X4.1654Y-3.5197
X4.1654Y-3.6181
X4.3583Y-3.0274
X4.3583Y-3.1258
X4.3583Y-3.2243
X4.3583Y-3.3227
X4.3583Y-3.4211
X4.3583Y-3.5195
X4.3583Y-3.618
T6
X1.0472Y-1.0535
X1.0472Y-1.1535
X1.0472Y-1.2535
X1.7421Y-2.0575
X1.7421Y-2.1575
X1.7421Y-2.2575
X1.7421Y-2.3575
X1.7421Y-2.4575
X1.8421Y-2.0575
X1.8421Y-2.1575
X1.8421Y-2.2575
X1.8421Y-2.3575
X1.8421Y-2.4575
X1.8449Y-3.1724
X1.8449Y-3.2724
X1.8449Y-3.3724
X1.8449Y-3.4724
X1.8449Y-3.5724
X1.8449Y-3.6724
X1.8449Y-3.7724
X1.8449Y-3.8724
X1.8449Y-3.9724
X1.847Y-4.1191
X1.847Y-4.2191
X1.847Y-4.3191
X1.847Y-4.4191
X1.847Y-4.5191
X1.847Y-4.6191
X1.9449Y-3.1724
X1.9449Y-3.2724
X1.9449Y-3.3724
X1.9449Y-3.4724
X1.9449Y-3.5724
X1.9449Y-3.6724
X1.9449Y-3.7724
X1.9449Y-3.8724
X1.9449Y-3.9724
X1.947Y-4.1191
X1.947Y-4.2191
X1.947Y-4.3191
X1.947Y-4.4191
X1.947Y-4.5191
X1.947Y-4.6191
X2.5778Y-4.3128
X2.5778Y-4.4128
X2.6778Y-4.3128
X2.6778Y-4.4128
X2.6807Y-1.5142
X2.6807Y-1.6142
X2.7807Y-1.5142
X2.7807Y-1.6142
T7
X2.0884Y-3.0785
X2.0884Y-3.1785
X2.0884Y-3.2785
X2.0884Y-3.3785
X2.0884Y-3.4785
X2.0884Y-3.5785
X2.0884Y-3.6785
X2.0884Y-3.7785
X2.0884Y-3.8785
X2.0884Y-3.9785
X2.0884Y-4.0785
X2.0884Y-4.1785
X2.1384Y-2.9785
X2.2384Y-2.9785
X2.3384Y-2.9785
X2.4384Y-2.9785
X2.5384Y-2.9785
X2.5734Y-3.4235
X2.5734Y-3.5235
X2.5734Y-3.8335
X2.5734Y-3.9335
X2.6384Y-2.9785
X2.6884Y-3.0785
X2.6884Y-3.1785
X2.6884Y-3.2785
X2.6884Y-3.3785
X2.6884Y-3.4785
X2.6884Y-3.5785
X2.6884Y-3.6785
X2.6884Y-3.7785
X2.6884Y-3.8785
X2.6884Y-3.9785
X2.6884Y-4.0785
X2.6884Y-4.1785
T8
X1.6496Y-1.0148
X1.6496Y-1.1148
X1.6496Y-1.2148
X1.6496Y-1.3148
X1.6496Y-5.3455
X1.6496Y-5.4455
X1.6496Y-5.5455
X1.6496Y-5.6455
X1.7496Y-1.0148
X1.7496Y-1.1148
X1.7496Y-1.2148
X1.7496Y-1.3148
X1.7496Y-5.3455
X1.7496Y-5.4455
X1.7496Y-5.5455
X1.7496Y-5.6455
X1.8496Y-1.0148
X1.8496Y-1.1148
X1.8496Y-1.2148
X1.8496Y-1.3148
X1.8496Y-5.3455
X1.8496Y-5.4455
X1.8496Y-5.5455
X1.8496Y-5.6455
X1.9496Y-1.0148
X1.9496Y-1.1148
X1.9496Y-1.2148
X1.9496Y-1.3148
X1.9496Y-5.3455
X1.9496Y-5.4455
X1.9496Y-5.5455
X1.9496Y-5.6455
X2.8346Y-1.0148
X2.8346Y-1.1148
X2.8346Y-1.2148
X2.8346Y-1.3148
X2.8457Y-5.3306
X2.8457Y-5.4306
X2.8457Y-5.5306
X2.8457Y-5.6306
X2.9346Y-1.0148
X2.9346Y-1.1148
X2.9346Y-1.2148
X2.9346Y-1.3148
X2.9457Y-5.3306
X2.9457Y-5.4306
X2.9457Y-5.5306
X2.9457Y-5.6306
X3.0346Y-1.0148
X3.0346Y-1.1148
X3.0346Y-1.2148
X3.0346Y-1.3148
X3.0457Y-5.3306
X3.0457Y-5.4306
X3.0457Y-5.5306
X3.0457Y-5.6306
X3.1346Y-1.0148
X3.1346Y-1.1148
X3.1346Y-1.2148
X3.1346Y-1.3148
X3.1457Y-5.3306
X3.1457Y-5.4306
X3.1457Y-5.5306
X3.1457Y-5.6306
X4.1771Y-1.0148
X4.1771Y-1.1148
X4.1771Y-1.2148
X4.1771Y-1.3148
X4.1771Y-5.3455
X4.1771Y-5.4455
X4.1771Y-5.5455
X4.1771Y-5.6455
X4.2771Y-1.0148
X4.2771Y-1.1148
X4.2771Y-1.2148
X4.2771Y-1.3148
X4.2771Y-5.3455
X4.2771Y-5.4455
X4.2771Y-5.5455
X4.2771Y-5.6455
X4.3771Y-1.0148
X4.3771Y-1.1148
X4.3771Y-1.2148
X4.3771Y-1.3148
X4.3771Y-5.3455
X4.3771Y-5.4455
X4.3771Y-5.5455
X4.3771Y-5.6455
X4.4771Y-1.0148
X4.4771Y-1.1148
X4.4771Y-1.2148
X4.4771Y-1.3148
X4.4771Y-5.3455
X4.4771Y-5.4455
X4.4771Y-5.5455
X4.4771Y-5.6455
T10
X0.7087Y-0.7087
X1.7913Y-5.9055
X3.1496Y-0.7087
X3.1496Y-3.9764
X4.1683Y-0.7087
X4.1732Y-5.9055
X13.6959Y-0.7264
X13.7008Y-5.9104
T11
X3.6614Y-0.8268
X3.6614Y-2.6388
X3.6614Y-3.9754
X3.6614Y-5.7874
T9
G00X4.8567Y-1.8562
M15
G01X4.8567Y-2.1908
M16
G05
G00X4.8567Y-2.7223
M15
G01X4.8567Y-3.0569
M16
G05
G00X4.8583Y-0.99
M15
G01X4.8583Y-1.3247
M16
G05
G00X4.8583Y-3.9231
M15
G01X4.8583Y-3.5884
M16
G05
G00X4.8583Y-4.7892
M15
G01X4.8583Y-4.4546
M16
G05
G00X4.8583Y-5.6554
M15
G01X4.8583Y-5.3207
M16
G05
G00X7.6756Y-1.8562
M15
G01X7.6756Y-2.1908
M16
G05
G00X7.6756Y-2.7223
M15
G01X7.6756Y-3.0569
M16
G05
G00X7.6772Y-0.99
M15
G01X7.6772Y-1.3247
M16
G05
G00X7.6772Y-3.9231
M15
G01X7.6772Y-3.5884
M16
G05
G00X7.6772Y-4.7892
M15
G01X7.6772Y-4.4546
M16
G05
G00X7.6772Y-5.6554
M15
G01X7.6772Y-5.3207
M16
G05
G00X7.8425Y-0.99
M15
G01X7.8425Y-1.3247
M16
G05
G00X7.8425Y-1.8562
M15
G01X7.8425Y-2.1908
M16
G05
G00X7.8425Y-2.7223
M15
G01X7.8425Y-3.0569
M16
G05
G00X7.8504Y-3.9231
M15
G01X7.8504Y-3.5884
M16
G05
G00X7.8504Y-4.7892
M15
G01X7.8504Y-4.4546
M16
G05
G00X7.8504Y-5.6554
M15
G01X7.8504Y-5.3207
M16
G05
G00X10.6614Y-0.99
M15
G01X10.6614Y-1.3247
M16
G05
G00X10.6614Y-1.8562
M15
G01X10.6614Y-2.1908
M16
G05
G00X10.6614Y-2.7223
M15
G01X10.6614Y-3.0569
M16
G05
G00X10.6693Y-3.9231
M15
G01X10.6693Y-3.5884
M16
G05
G00X10.6693Y-4.7892
M15
G01X10.6693Y-4.4546
M16
G05
G00X10.6693Y-5.6554
M15
G01X10.6693Y-5.3207
M16
G05
G00X10.8268Y-0.99
M15
G01X10.8268Y-1.3247
M16
G05
G00X10.8268Y-1.8562
M15
G01X10.8268Y-2.1908
M16
G05
G00X10.8268Y-2.7223
M15
G01X10.8268Y-3.0569
M16
G05
G00X10.8346Y-3.9231
M15
G01X10.8346Y-3.5884
M16
G05
G00X10.8346Y-4.7892
M15
G01X10.8346Y-4.4546
M16
G05
G00X10.8346Y-5.6554
M15
G01X10.8346Y-5.3207
M16
G05
G00X13.6457Y-0.99
M15
G01X13.6457Y-1.3247
M16
G05
G00X13.6457Y-1.8562
M15
G01X13.6457Y-2.1908
M16
G05
G00X13.6457Y-2.7223
M15
G01X13.6457Y-3.0569
M16
G05
G00X13.6535Y-3.9231
M15
G01X13.6535Y-3.5884
M16
G05
G00X13.6535Y-4.7892
M15
G01X13.6535Y-4.4546
M16
G05
G00X13.6535Y-5.6554
M15
G01X13.6535Y-5.3207
M16
G05
T0
M30
